<?xml version="1.0" standalone="no"?>
<!DOCTYPE svg PUBLIC "-//W3C//DTD SVG 20010904//EN"
 "http://www.w3.org/TR/2001/REC-SVG-20010904/DTD/svg10.dtd">
<svg version="1.0" xmlns="http://www.w3.org/2000/svg"
 width="512.000000pt" height="512.000000pt" viewBox="0 0 512.000000 512.000000"
 preserveAspectRatio="xMidYMid meet">
<metadata>
Created by potrace 1.11, written by Peter Selinger 2001-2013
</metadata>
<g transform="translate(0.000000,512.000000) scale(0.100000,-0.100000)"
fill="#000000" stroke="none">
<path d="M1235 4815 c-120 -45 -190 -193 -147 -310 21 -56 66 -110 112 -136
l39 -22 0 -336 -1 -336 -246 0 c-136 0 -273 -2 -304 -6 -125 -15 -255 -107
-311 -223 -34 -70 -44 -120 -46 -243 -1 -54 -4 -99 -6 -102 -3 -2 -66 -4 -141
-5 l-136 -1 -24 -28 -24 -28 0 -514 c0 -363 3 -521 11 -539 17 -37 57 -46 195
-46 l124 0 0 -257 c1 -142 3 -276 6 -298 22 -150 136 -283 284 -332 51 -17
106 -18 747 -18 455 0 693 -3 694 -10 1 -5 2 -162 3 -348 l1 -339 28 -24 28
-24 439 0 439 0 28 24 28 24 0 340 c0 187 3 343 6 346 3 4 308 7 676 7 369 1
691 5 717 10 134 25 258 130 308 261 25 67 27 87 27 386 l1 252 130 0 c141 0
173 8 190 49 7 18 10 186 8 543 l-3 517 -23 23 c-21 22 -31 23 -158 24 -74 1
-136 3 -139 5 -2 3 -5 51 -6 108 -2 118 -19 195 -57 260 -60 102 -182 185
-294 200 -29 3 -166 6 -305 6 l-251 0 0 338 0 338 38 19 c103 53 151 183 108
298 -96 256 -475 187 -473 -87 1 -47 7 -78 22 -107 23 -43 89 -108 120 -118
18 -6 19 -20 19 -344 l0 -337 -1155 0 -1156 0 -1 335 0 335 30 19 c140 84 174
248 80 372 -60 78 -185 114 -279 79z"/>
</g>
</svg>
